<svg xmlns="http://www.w3.org/2000/svg" viewBox="0 0 123.88 123.88"><defs><style>.cls-1{fill:#fff;}</style></defs><g id="Layer_2" data-name="Layer 2"><g id="Layer_1-2" data-name="Layer 1"><path class="cls-1" d="M77.47,50.54c0-14.19-8.43-25.71-23.62-26v0h-27v1.74h6.24v53H26.85V81H55.12c.8,0,1.62,0,2.45,0h.84v0C69,80.41,77.47,69,77.47,55c0-.89,0-1.78,0-2.65C77.45,51.76,77.47,51.15,77.47,50.54ZM66.18,61c0,10.08-6.38,18.25-14.25,18.25H42.26v-53h6.62c11.12,0,17.3,8.16,17.3,18.24Z"/><path class="cls-1" d="M46.79,73.34c0,14.19,8.44,25.72,23.62,26v.05h27V97.64H91.18v-53h6.23V42.87H65.85v0c-10.6.57-19.06,12-19.06,26,0,.89,0,1.78.06,2.65C46.82,72.12,46.79,72.73,46.79,73.34Zm11.3-10.49c0-10.08,6.38-18.24,14.25-18.24H82v53H75.38c-11.12,0-17.29-8.17-17.29-18.25Z"/><path class="cls-1" d="M61.94,3A58.94,58.94,0,1,1,3,61.94,59,59,0,0,1,61.94,3m0-3a61.94,61.94,0,1,0,61.94,61.94A61.94,61.94,0,0,0,61.94,0Z"/></g></g></svg>